# xmcd
#
# Track frame offsets: 
#        150
#        14564
#        34246
#        46226
#        63195
#        79116
#        91375
#        104308
#        117048
#        133602
#        144839
#        160307
#
# Disc length: 2373 seconds
#
# Revision: 1
# Processed by: cddbd v1.5.2PL0 Copyright (c) Steve Scherf et al.
# Submitted via: ExactAudioCopy v0.95b4
#
DISCID=9509430c
DTITLE=Eddie Rabbitt - Hits [CD1]
DYEAR=2003
DGENRE=Country
TTITLE0=I Love A Rainy Night
TTITLE1=Suspicions
TTITLE2=Girl On My Mind
TTITLE3=Is There A Country Song On The Jukebox
TTITLE4=We Can't Go On Living Like This
TTITLE5=You Make Love Beautiful
TTITLE6=Could You Love A Poor Boy Dolly
TTITLE7=I Can't Get This Ring Off My Finger
TTITLE8=The Room At The Top Of The Stairs
TTITLE9=Rockin' With My Baby
TTITLE10=Pour Me Another Tequila
TTITLE11=Kentucky Rain
EXTD=
EXTT0=
EXTT1=
EXTT2=
EXTT3=
EXTT4=
EXTT5=
EXTT6=
EXTT7=
EXTT8=
EXTT9=
EXTT10=
EXTT11=
PLAYORDER=
